<svg width="300" height="300" viewBox="0 0 300 300" fill="none" xmlns="http://www.w3.org/2000/svg">
<path fill-rule="evenodd" clip-rule="evenodd" d="M55 0C24.6243 0 0 24.6243 0 55V57.5V242.5V245C0 275.376 24.6243 300 55 300H57.5H242.5H245C275.376 300 300 275.376 300 245V242.5V57.5V55C300 24.6243 275.376 0 245 0H242.5H57.5H55ZM57.5 0C86.3926 0 110.308 21.3099 114.386 49.0698C125.527 45.1387 137.514 43 150 43C162.486 43 174.473 45.1387 185.614 49.0698C189.692 21.3098 213.607 0 242.5 0C274.256 0 300 25.7436 300 57.5C300 86.3926 278.69 110.308 250.93 114.386C254.861 125.527 257 137.514 257 150C257 162.486 254.861 174.473 250.93 185.614C278.69 189.692 300 213.607 300 242.5C300 274.256 274.256 300 242.5 300C213.607 300 189.692 278.69 185.614 250.93C174.473 254.861 162.486 257 150 257C137.514 257 125.527 254.861 114.386 250.93C110.308 278.69 86.3926 300 57.5 300C25.7436 300 0 274.256 0 242.5C0 213.607 21.3099 189.692 49.0698 185.614C45.1387 174.473 43 162.486 43 150C43 137.514 45.1387 125.527 49.0698 114.386C21.3099 110.308 0 86.3926 0 57.5C0 25.7436 25.7436 0 57.5 0ZM186.574 250.586C190.497 277.96 214.041 299 242.5 299C273.704 299 299 273.704 299 242.5C299 214.041 277.96 190.497 250.586 186.574C239.794 216.247 216.247 239.794 186.574 250.586ZM249.571 186.438C238.871 215.668 215.668 238.871 186.438 249.571C186.149 247.255 186 244.895 186 242.5C186 211.296 211.296 186 242.5 186C244.895 186 247.255 186.149 249.571 186.438ZM249.919 185.474C247.49 185.161 245.014 185 242.5 185C210.744 185 185 210.744 185 242.5C185 245.014 185.161 247.49 185.474 249.919C174.383 253.856 162.442 256 150 256C137.558 256 125.617 253.856 114.526 249.919C114.839 247.49 115 245.014 115 242.5C115 210.744 89.2564 185 57.5 185C54.9862 185 52.5101 185.161 50.0815 185.474C46.1435 174.383 44 162.442 44 150C44 137.558 46.1436 125.617 50.0815 114.526C52.5101 114.839 54.9862 115 57.5 115C89.2564 115 115 89.2564 115 57.5C115 54.9862 114.839 52.5101 114.526 50.0815C125.617 46.1436 137.558 44 150 44C162.442 44 174.383 46.1436 185.474 50.0815C185.161 52.5101 185 54.9862 185 57.5C185 89.2564 210.744 115 242.5 115C245.014 115 247.49 114.839 249.919 114.526C253.856 125.617 256 137.558 256 150C256 162.442 253.856 174.383 249.919 185.474ZM114 57.5C114 55.1053 113.851 52.7454 113.562 50.4291C84.3321 61.1288 61.1288 84.3321 50.4291 113.562C52.7454 113.851 55.1053 114 57.5 114C88.7041 114 114 88.7041 114 57.5ZM49.4139 113.426C60.2057 83.7533 83.7533 60.2057 113.426 49.4139C109.503 22.0404 85.9586 1 57.5 1C26.2959 1 1 26.2959 1 57.5C1 85.9586 22.0404 109.503 49.4139 113.426ZM186 57.5C186 55.1053 186.149 52.7454 186.438 50.4291C215.668 61.1288 238.871 84.3321 249.571 113.562C247.255 113.851 244.895 114 242.5 114C211.296 114 186 88.7041 186 57.5ZM299 57.5C299 85.9586 277.96 109.503 250.586 113.426C239.794 83.7533 216.247 60.2057 186.574 49.4139C190.497 22.0404 214.041 1 242.5 1C273.704 1 299 26.2959 299 57.5ZM114 242.5C114 244.895 113.851 247.255 113.562 249.571C84.3321 238.871 61.1288 215.668 50.4291 186.438C52.7454 186.149 55.1053 186 57.5 186C88.7041 186 114 211.296 114 242.5ZM1 242.5C1 214.041 22.0404 190.497 49.4139 186.574C60.2057 216.247 83.7533 239.794 113.426 250.586C109.503 277.96 85.9586 299 57.5 299C26.2959 299 1 273.704 1 242.5Z" fill="#021C0E"/>
</svg>
