<svg width="315" height="304" viewBox="0 0 315 304" fill="none" xmlns="http://www.w3.org/2000/svg">
<path fill-rule="evenodd" clip-rule="evenodd" d="M315 0H0V304H315V0ZM106.113 63.2969C120.72 10.5305 195.909 9.98757 210.032 62.8858C214.991 81.4621 229.5 95.9714 248.077 100.931C300.975 115.053 300.432 190.242 247.666 204.849C229.377 209.912 214.912 224.377 209.849 242.666C195.242 295.432 120.053 295.975 105.931 243.077C100.971 224.5 86.462 209.991 67.8857 205.032C14.9875 190.909 15.5303 115.721 68.2967 101.113C86.5852 96.0504 101.05 81.5854 106.113 63.2969ZM106.625 63.6688C121.138 11.2453 195.838 10.7059 209.868 63.2604C214.796 81.716 229.211 96.131 247.666 101.058C300.221 115.089 299.681 189.789 247.258 204.302C229.088 209.331 214.717 223.702 209.687 241.872C195.175 294.296 120.475 294.835 106.444 242.28C101.517 223.825 87.1018 209.41 68.6462 204.483C16.0917 190.452 16.631 115.752 69.0545 101.239C87.2242 96.2094 101.595 81.8385 106.625 63.6688Z" fill="#021C0E"/>
</svg>
