<svg width="288" height="283" viewBox="0 0 288 283" fill="none" xmlns="http://www.w3.org/2000/svg">
<path fill-rule="evenodd" clip-rule="evenodd" d="M288 0H0V283H288V0ZM92.1132 52.2969C106.721 -0.469512 181.909 -1.01242 196.032 51.8858C200.991 70.4621 215.5 84.9714 234.077 89.9308C286.975 104.053 286.432 179.242 233.666 193.849C215.377 198.912 200.912 213.377 195.849 231.666C181.242 284.432 106.053 284.975 91.9308 232.077C86.9715 213.5 72.4622 198.991 53.8859 194.032C0.987637 179.909 1.53045 104.721 54.2968 90.1133C72.5853 85.0504 87.0503 70.5854 92.1132 52.2969ZM94.694 55.2673C108.765 4.43988 181.19 3.91693 194.794 54.8713C199.571 72.765 213.547 86.7411 231.441 91.5182C282.395 105.122 281.872 177.547 231.045 191.618C213.428 196.495 199.495 210.428 194.618 228.045C180.547 278.872 108.122 279.395 94.5183 228.441C89.7412 210.547 75.7651 196.571 57.8714 191.794C6.91704 178.19 7.4399 105.765 58.2672 91.694C75.8837 86.8172 89.8171 72.8837 94.694 55.2673Z" fill="#021C0E"/>
</svg>
