<svg width="288" height="280" viewBox="0 0 288 280" fill="none" xmlns="http://www.w3.org/2000/svg">
<path fill-rule="evenodd" clip-rule="evenodd" d="M288 0H0V280H288V0ZM91.6469 52.8306C106.254 0.0641792 181.443 -0.478727 195.565 52.4195C200.525 70.9958 215.034 85.5051 233.61 90.4645C286.509 104.587 285.966 179.776 233.199 194.383C214.911 199.446 200.446 213.911 195.383 232.199C180.776 284.966 105.587 285.509 91.4645 232.61C86.5052 214.034 71.9959 199.525 53.4196 194.565C0.521329 180.443 1.06414 105.254 53.8305 90.6469C72.119 85.5841 86.584 71.1191 91.6469 52.8306ZM99.5971 71.5465C111.205 29.616 170.953 29.1846 182.175 71.2198C186.116 85.9814 197.646 97.5111 212.407 101.452C254.443 112.674 254.011 172.423 212.081 184.03C197.548 188.053 186.054 199.548 182.03 214.081C170.423 256.011 110.675 256.442 99.4523 214.407C95.5113 199.646 83.9816 188.116 69.2201 184.175C27.1849 172.953 27.6162 113.205 69.5466 101.597C84.0795 97.5738 95.574 86.0793 99.5971 71.5465Z" fill="#021C0E"/>
</svg>
